<svg width="392" height="73" viewBox="0 0 392 73" fill="none" xmlns="http://www.w3.org/2000/svg">
<g filter="url(#filter0_d)">
<path d="M28.2603 25.808C30.2763 27.568 31.2843 29.376 31.2843 31.232C31.2843 32.448 30.8683 33.664 30.0363 34.88C27.0923 39.104 23.6363 41.712 19.6683 42.704C18.6443 42.96 17.4923 43.088 16.2123 43.088C13.2043 43.088 10.3243 42.336 7.57225 40.832C6.26025 40.128 5.34825 39.216 4.83625 38.096C4.32425 36.976 4.06825 35.648 4.06825 34.112C4.06825 33.024 4.19625 31.456 4.45225 29.408C4.54825 28.864 4.99625 28.592 5.79625 28.592C6.69225 28.592 7.60425 28.88 8.53225 29.456C9.46025 30.032 9.87625 30.672 9.78025 31.376C9.74825 31.632 9.66825 32.208 9.54025 33.104C9.41225 33.968 9.34825 34.768 9.34825 35.504C9.34825 37.168 9.74825 38.288 10.5483 38.864C11.3483 39.44 12.3883 39.728 13.6683 39.728C14.9483 39.728 16.2763 39.456 17.6523 38.912C18.7083 38.496 19.8763 37.808 21.1563 36.848C22.4683 35.888 23.5723 34.8 24.4683 33.584C25.3963 32.368 25.8603 31.184 25.8603 30.032C25.8603 29.104 25.5403 28.256 24.9003 27.488C24.2603 26.752 23.3483 26.048 22.1643 25.376C21.0123 24.704 19.4763 23.92 17.5563 23.024C15.1883 21.904 13.2843 20.928 11.8443 20.096C10.4363 19.232 9.22025 18.224 8.19625 17.072C7.17225 15.888 6.66025 14.56 6.66025 13.088C6.66025 12.416 6.74025 11.824 6.90025 11.312C7.66825 8.432 9.55625 6.368 12.5643 5.12C15.6043 3.84 18.8843 3.2 22.4043 3.2C23.9403 3.2 25.2843 3.296 26.4363 3.488C27.5883 3.68 28.5483 4.096 29.3163 4.736C30.1803 5.44 30.6123 6.432 30.6123 7.712C30.6123 8.48 30.4843 9.248 30.2283 10.016C30.0043 10.752 29.6523 11.76 29.1723 13.04C28.8203 13.904 28.6123 14.432 28.5483 14.624C28.3563 15.168 27.8283 15.44 26.9643 15.44C26.1003 15.44 25.2523 15.2 24.4203 14.72C23.5883 14.24 23.1723 13.696 23.1723 13.088C23.1723 12.928 23.1883 12.8 23.2203 12.704L23.9403 10.64C24.2603 9.744 24.4843 9.072 24.6123 8.624L24.9483 6.608C20.9163 6.544 17.7003 7.36 15.3003 9.056C14.3403 9.696 13.5883 10.448 13.0443 11.312C12.5323 12.144 12.2763 12.992 12.2763 13.856C12.2763 15.36 13.0283 16.656 14.5323 17.744C15.6203 18.512 16.8203 19.232 18.1323 19.904C19.4763 20.576 20.2923 20.992 20.5803 21.152C22.4363 22.08 23.9243 22.864 25.0443 23.504C26.1963 24.144 27.2683 24.912 28.2603 25.808ZM41.5866 4.88C41.2346 4.784 40.8826 4.736 40.5306 4.736C39.8266 4.736 39.2026 4.912 38.6586 5.264C37.9546 5.648 37.5546 6.032 37.4586 6.416C37.0426 7.92 36.7706 8.912 36.6426 9.392V9.536C36.6426 9.696 36.7066 9.856 36.8346 10.016C36.9626 10.144 37.1066 10.24 37.2666 10.304C37.5226 10.432 37.8106 10.496 38.1306 10.496C38.6426 10.496 39.2506 10.352 39.9546 10.064C40.6906 9.744 41.1706 9.312 41.3946 8.768C41.5866 8.224 41.8586 7.264 42.2106 5.888V5.792C42.2106 5.632 42.1466 5.472 42.0186 5.312C41.8906 5.12 41.7466 4.976 41.5866 4.88ZM39.7146 24.128C39.5226 25.408 39.1546 27.728 38.6106 31.088C38.0986 34.416 37.6666 37.44 37.3146 40.16C37.2186 40.768 36.7866 41.296 36.0186 41.744C35.2826 42.16 34.5306 42.368 33.7626 42.368C33.2506 42.368 32.8506 42.272 32.5626 42.08C32.3066 41.856 32.2106 41.536 32.2746 41.12C32.8186 37.92 33.3946 34.272 34.0026 30.176C34.6426 26.048 35.0906 23.104 35.3466 21.344L36.3546 14.768C36.4506 14.192 36.8826 13.696 37.6506 13.28C38.4506 12.864 39.2186 12.656 39.9546 12.656C40.4026 12.656 40.7546 12.752 41.0106 12.944C41.2666 13.136 41.3626 13.408 41.2986 13.76L39.7146 24.128ZM70.8438 12.704C70.6838 16.064 70.6038 19.072 70.6038 21.728C70.6038 28.32 71.0518 34.192 71.9478 39.344C72.0758 40.08 71.7878 40.72 71.0838 41.264C70.3798 41.776 69.6118 42.032 68.7798 42.032C68.2998 42.032 67.8998 41.92 67.5798 41.696C67.2598 41.472 67.0678 41.136 67.0038 40.688C66.1718 34.48 65.6918 28.688 65.5638 23.312C64.0278 26.96 62.1878 32.08 60.0438 38.672C60.0118 38.8 59.9158 38.976 59.7558 39.2C59.4678 39.584 59.0358 39.888 58.4598 40.112C57.8838 40.336 57.3078 40.448 56.7318 40.448C56.2838 40.448 55.9318 40.384 55.6758 40.256C55.2598 40.032 55.0518 39.728 55.0518 39.344C55.0518 39.248 55.0838 39.072 55.1478 38.816C55.1798 38.464 55.1958 37.952 55.1958 37.28C55.1958 36.16 55.0998 34.544 54.9078 32.432L54.7158 29.84C54.5878 26.704 54.4758 24.352 54.3798 22.784C52.8438 25.6 51.6278 27.68 50.7318 29.024C49.9638 33.088 48.6838 37.024 46.8918 40.832C46.6678 41.28 46.1878 41.664 45.4518 41.984C44.7158 42.304 43.9958 42.464 43.2918 42.464C42.8438 42.464 42.4758 42.384 42.1878 42.224C41.9318 42.064 41.8038 41.84 41.8038 41.552C41.8038 41.36 41.8518 41.152 41.9478 40.928C43.4198 37.728 44.5398 34.448 45.3078 31.088C45.1798 30.96 45.1158 30.784 45.1158 30.56C45.1158 30.24 45.2438 29.904 45.4998 29.552L45.6918 29.216C46.2038 26.656 46.4598 23.936 46.4598 21.056C46.4598 19.84 46.4118 18.64 46.3158 17.456C46.2838 16.912 46.6518 16.416 47.4198 15.968C48.1878 15.52 48.9718 15.296 49.7718 15.296C50.2198 15.296 50.5878 15.392 50.8758 15.584C51.1638 15.776 51.3238 16.048 51.3558 16.4C51.4198 16.976 51.4838 17.904 51.5478 19.184C52.2838 17.84 53.0678 16.576 53.8998 15.392C53.9638 14.848 54.3478 14.384 55.0518 14C55.7558 13.584 56.4918 13.376 57.2598 13.376C57.7398 13.376 58.1398 13.488 58.4598 13.712C58.8118 13.904 59.0038 14.224 59.0358 14.672C59.3558 18.8 59.5798 22.48 59.7078 25.712C61.8518 20.464 63.9798 16.128 66.0918 12.704C66.3158 12.352 66.7478 12.032 67.3878 11.744C68.0278 11.456 68.6518 11.312 69.2598 11.312C69.7398 11.312 70.1238 11.424 70.4118 11.648C70.7318 11.872 70.8758 12.224 70.8438 12.704ZM88.3266 29.984C88.4546 29.44 88.5186 28.8 88.5186 28.064C88.5186 25.504 87.5586 23.008 85.6386 20.576C84.5506 19.168 83.3986 18.032 82.1826 17.168C81.2226 23.152 80.4706 27.984 79.9266 31.664C79.6706 33.168 79.3186 35.424 78.8706 38.432C79.8306 38.88 80.7106 39.104 81.5106 39.104C82.8546 39.104 84.0706 38.448 85.1586 37.136C85.9586 36.176 86.6306 35.072 87.1746 33.824C87.7186 32.576 88.1026 31.296 88.3266 29.984ZM82.7106 12.512C84.6946 13.184 86.4866 14.32 88.0866 15.92C89.6866 17.488 90.9346 19.328 91.8306 21.44C92.7586 23.52 93.2226 25.6 93.2226 27.68C93.2226 28.8 93.0786 29.888 92.7906 30.944C92.1826 33.152 91.2546 35.136 90.0066 36.896C88.7906 38.624 87.3186 40 85.5906 41.024C83.8946 42.016 82.0706 42.512 80.1186 42.512C79.5106 42.512 78.8866 42.464 78.2466 42.368C76.9666 50.56 75.8146 57.248 74.7906 62.432C74.6626 63.04 74.2146 63.552 73.4466 63.968C72.6786 64.384 71.8946 64.592 71.0946 64.592C70.5506 64.592 70.1346 64.48 69.8466 64.256C69.5266 64.032 69.4146 63.696 69.5106 63.248C71.0786 55.312 72.4546 47.744 73.6386 40.544L73.5426 40.496C73.1266 40.208 72.9186 39.888 72.9186 39.536C72.9186 38.992 73.3026 38.48 74.0706 38C75.0946 32.08 76.2466 24.48 77.5266 15.2L76.9026 15.248L76.3746 15.296C75.8306 15.296 75.4306 15.2 75.1746 15.008C74.9186 14.816 74.7906 14.576 74.7906 14.288C74.7906 13.808 75.0306 13.344 75.5106 12.896C75.9906 12.448 76.5826 12.16 77.2866 12.032C77.8626 11.936 78.4386 11.888 79.0146 11.888C79.4306 11.888 79.9906 11.92 80.6946 11.984C81.7186 11.856 82.3906 12.032 82.7106 12.512ZM98.0133 3.776C98.0773 3.168 98.4933 2.656 99.2613 2.24C100.061 1.792 100.845 1.568 101.613 1.568C102.093 1.568 102.461 1.664 102.717 1.856C102.973 2.048 103.085 2.352 103.053 2.768C102.125 11.12 101.165 19.472 100.173 27.824L98.7333 40.352C98.6693 40.96 98.2373 41.488 97.4373 41.936C96.6373 42.384 95.8373 42.608 95.0373 42.608C93.9493 42.608 93.4533 42.192 93.5493 41.36L95.8053 22.544C96.8293 13.712 97.5653 7.456 98.0133 3.776ZM120.183 25.472C120.183 22.08 118.199 19.408 114.231 17.456C113.239 18.288 112.247 19.392 111.255 20.768C110.039 22.528 109.031 24.496 108.231 26.672C107.911 27.536 107.607 28.72 107.319 30.224C107.031 31.696 106.887 33.072 106.887 34.352C106.887 35.664 107.063 36.72 107.415 37.52C107.799 38.288 108.407 38.672 109.239 38.672C109.911 38.672 110.695 38.4 111.591 37.856C114.055 36.416 116.103 34.624 117.735 32.48C119.367 30.336 120.183 28 120.183 25.472ZM121.527 16.784C122.679 17.872 123.559 19.104 124.167 20.48C124.807 21.856 125.127 23.312 125.127 24.848C125.127 27.056 124.487 29.296 123.207 31.568C122.343 33.104 121.079 34.72 119.415 36.416C117.751 38.112 115.895 39.552 113.847 40.736C111.831 41.888 109.895 42.464 108.039 42.464C106.887 42.464 105.799 42.208 104.775 41.696C102.599 40.512 101.511 38.384 101.511 35.312C101.511 33.104 102.007 30.688 102.999 28.064C103.991 25.408 105.047 23.168 106.167 21.344C108.887 17.024 111.751 14.304 114.759 13.184C115.591 12.864 116.487 12.704 117.447 12.704C118.567 12.704 119.511 12.992 120.279 13.568C121.047 14.112 121.495 14.976 121.623 16.16V16.352C121.623 16.448 121.591 16.592 121.527 16.784ZM144.92 12.944C146.2 13.648 146.84 15.136 146.84 17.408C146.84 18.24 146.76 19.168 146.6 20.192C146.44 21.184 146.264 22.128 146.072 23.024L145.736 24.944L143.72 39.872C144.36 40.032 144.632 40.432 144.536 41.072C144.184 42.832 142.936 43.952 140.792 44.432L140.312 44.48C139.768 44.48 139.288 44.368 138.872 44.144C138.456 43.92 138.28 43.568 138.344 43.088C139.688 33.36 140.68 26.064 141.32 21.2C141.352 21.072 141.416 20.704 141.512 20.096C141.64 19.488 141.704 18.912 141.704 18.368C141.704 17.344 141.432 16.816 140.888 16.784C140.472 16.72 139.784 17.296 138.824 18.512C137.896 19.696 137.384 20.352 137.288 20.48C135.368 22.656 133.576 25.088 131.912 27.776C131.144 32.448 130.536 36.224 130.088 39.104L129.848 40.64C129.752 41.248 129.304 41.776 128.504 42.224C127.704 42.672 126.92 42.896 126.152 42.896C125.672 42.896 125.288 42.8 125 42.608C124.744 42.384 124.648 42.064 124.712 41.648C125.544 36.752 126.2 32.752 126.68 29.648C126.488 29.456 126.392 29.232 126.392 28.976C126.392 28.816 126.44 28.64 126.536 28.448C126.632 28.288 126.712 28.144 126.776 28.016C126.872 27.888 126.952 27.776 127.016 27.68L128.936 16.064C129.032 15.488 129.464 14.992 130.232 14.576C131 14.16 131.768 13.952 132.536 13.952C133.016 13.952 133.384 14.048 133.64 14.24C133.896 14.432 133.992 14.72 133.928 15.104C133.768 16.16 133.544 17.52 133.256 19.184L135.272 17.024C136.616 15.68 137.896 14.576 139.112 13.712C140.328 12.848 141.56 12.416 142.808 12.416C143.608 12.416 144.312 12.592 144.92 12.944ZM168.184 24.032C168.504 24.064 168.744 24.16 168.904 24.32C169.096 24.48 169.192 24.688 169.192 24.944C169.192 25.168 169.128 25.392 169 25.616C168.776 26.064 168.376 26.432 167.8 26.72C167.224 26.976 166.68 27.088 166.168 27.056C164.216 26.992 161.16 26.864 157 26.672L154.024 26.528C153.704 26.496 153.448 26.4 153.256 26.24C153.096 26.08 153.016 25.888 153.016 25.664C153.016 25.44 153.096 25.2 153.256 24.944C153.48 24.528 153.88 24.192 154.456 23.936C155.032 23.648 155.576 23.504 156.088 23.504C161.464 23.696 165.496 23.872 168.184 24.032ZM187.221 24.608C189.461 24.288 191.525 24.128 193.413 24.128L192.933 12.944C192.165 14.32 191.077 16.528 189.669 19.568C188.453 22.16 187.637 23.84 187.221 24.608ZM201.573 41.792C201.701 42.272 201.573 42.736 201.189 43.184C200.805 43.6 200.277 43.936 199.605 44.192C198.965 44.48 198.357 44.624 197.781 44.624C196.853 44.624 196.325 44.336 196.197 43.76C195.045 39.184 194.197 33.744 193.653 27.44C190.773 27.408 187.909 27.68 185.061 28.256C182.053 33.28 179.253 37.904 176.661 42.128C176.405 42.576 175.877 42.96 175.077 43.28C174.245 43.568 173.477 43.712 172.773 43.712C171.877 43.712 171.429 43.472 171.429 42.992C171.429 42.8 171.493 42.592 171.621 42.368C174.181 37.888 176.549 33.792 178.725 30.08L177.909 30.368C177.397 30.56 176.933 30.656 176.517 30.656C176.101 30.656 175.781 30.56 175.557 30.368C175.301 30.176 175.173 29.936 175.173 29.648C175.173 29.328 175.333 29.008 175.653 28.688C175.941 28.336 176.373 28.032 176.949 27.776C178.453 27.104 179.797 26.576 180.981 26.192C182.709 23.216 184.549 19.84 186.501 16.064C188.741 11.744 190.629 8.368 192.165 5.936C192.261 5.808 192.389 5.68 192.549 5.552L192.501 5.312C192.501 4.736 192.901 4.224 193.701 3.776C194.533 3.296 195.365 3.056 196.197 3.056C197.221 3.056 197.749 3.44 197.781 4.208L197.925 7.424C198.213 15.136 198.581 21.632 199.029 26.912C199.509 32.16 200.357 37.12 201.573 41.792ZM230.504 22.736C230.504 21.232 229.96 19.856 228.872 18.608C227.784 17.36 226.408 16.128 224.744 14.912C221.672 12.736 218.168 10.784 214.232 9.056C213.784 11.776 213.144 15.856 212.312 21.296C212.088 22.736 211.704 25.136 211.16 28.496C210.648 31.856 210.152 34.848 209.672 37.472C212.552 36.32 215.048 35.264 217.16 34.304C219.272 33.312 221.288 32.24 223.208 31.088C225.32 29.872 227.064 28.608 228.44 27.296C229.816 25.984 230.504 24.464 230.504 22.736ZM230.504 13.472C233.832 16.096 235.496 18.832 235.496 21.68C235.496 22.096 235.448 22.544 235.352 23.024C234.968 24.976 233.992 26.72 232.424 28.256C230.856 29.792 228.888 31.312 226.52 32.816C220.28 36.752 212.616 40.16 203.528 43.04C203.112 43.168 202.696 43.232 202.28 43.232C201.8 43.232 201.432 43.136 201.176 42.944C200.888 42.72 200.744 42.448 200.744 42.128C200.744 41.808 200.904 41.488 201.224 41.168C201.512 40.816 201.944 40.528 202.52 40.304L204.584 39.488C204.36 39.264 204.296 39.008 204.392 38.72L206.696 24.752C207.592 18.928 208.552 13.12 209.576 7.328L209.624 7.088C208.92 6.768 207.832 6.32 206.36 5.744C205.912 5.552 205.688 5.296 205.688 4.976C205.688 4.496 206.12 4 206.984 3.488C207.88 2.944 208.712 2.672 209.48 2.672C209.8 2.672 210.024 2.704 210.152 2.768C214.856 4.688 218.76 6.416 221.864 7.952C225 9.488 227.88 11.328 230.504 13.472ZM265.038 4.544C265.774 4.672 266.142 4.944 266.142 5.36C266.142 5.68 265.918 6.048 265.47 6.464C265.022 6.848 264.494 7.168 263.886 7.424C263.31 7.68 262.814 7.776 262.398 7.712C260.862 7.488 259.23 7.376 257.502 7.376C254.462 7.376 250.99 7.808 247.086 8.672C245.902 12.64 244.734 16.992 243.582 21.728C247.294 20.896 250.558 20.48 253.374 20.48C254.174 20.48 254.782 20.496 255.198 20.528C255.87 20.56 256.206 20.864 256.206 21.44C256.206 22.08 255.854 22.592 255.15 22.976C254.478 23.36 253.774 23.568 253.038 23.6C249.614 23.888 246.206 24.368 242.814 25.04C241.886 28.944 241.006 33.2 240.174 37.808C243.694 37.648 246.878 37.568 249.726 37.568C253.502 37.568 256.974 37.744 260.142 38.096C260.814 38.192 261.15 38.512 261.15 39.056C261.15 39.344 261.054 39.664 260.862 40.016C260.542 40.496 260.046 40.848 259.374 41.072C258.734 41.264 258.094 41.328 257.454 41.264C255.598 41.104 253.374 41.024 250.782 41.024C248.638 41.024 246.478 41.072 244.302 41.168C242.126 41.232 240.494 41.264 239.406 41.264C239.086 41.712 238.542 42.096 237.774 42.416C237.038 42.736 236.35 42.896 235.71 42.896C235.23 42.896 234.862 42.8 234.606 42.608C234.35 42.416 234.254 42.144 234.318 41.792C234.318 41.696 234.35 41.52 234.414 41.264H234.318C233.262 41.264 232.734 40.992 232.734 40.448C232.734 40.096 232.958 39.712 233.406 39.296C233.854 38.88 234.366 38.544 234.942 38.288C235.934 32.88 236.958 27.888 238.014 23.312C239.07 18.704 240.302 14.272 241.71 10.016L241.326 10.064C240.942 10.064 240.638 9.968 240.414 9.776C240.222 9.584 240.126 9.344 240.126 9.056C240.126 8.672 240.286 8.288 240.606 7.904C240.926 7.52 241.358 7.232 241.902 7.04L242.814 6.752L243.054 6.128C243.214 5.648 243.646 5.248 244.35 4.928C245.054 4.576 245.758 4.4 246.462 4.4C247.39 4.4 247.902 4.704 247.998 5.312C251.806 4.416 255.342 3.968 258.606 3.968C260.782 3.968 262.926 4.16 265.038 4.544ZM290.191 2.528C291.183 2.528 291.679 2.8 291.679 3.344C291.679 3.824 291.311 4.336 290.575 4.88C289.839 5.424 289.135 5.712 288.463 5.744C284.207 5.84 280.287 6.384 276.703 7.376C275.423 11.504 274.255 15.904 273.199 20.576C275.919 20.032 278.591 19.76 281.215 19.76C282.335 19.76 283.471 19.808 284.623 19.904C285.295 19.936 285.631 20.16 285.631 20.576C285.631 21.056 285.231 21.616 284.431 22.256C283.631 22.864 282.943 23.152 282.367 23.12C281.887 23.088 281.167 23.072 280.207 23.072C277.807 23.072 275.215 23.36 272.431 23.936C271.151 29.6 270.111 35.184 269.311 40.688C269.215 41.296 268.735 41.84 267.871 42.32C267.007 42.768 266.159 42.992 265.327 42.992C264.847 42.992 264.463 42.896 264.175 42.704C263.919 42.512 263.823 42.224 263.887 41.84C264.879 35.568 265.887 30.096 266.911 25.424L265.279 26C264.703 26.192 264.223 26.288 263.839 26.288C263.455 26.288 263.151 26.208 262.927 26.048C262.703 25.888 262.591 25.664 262.591 25.376C262.591 25.056 262.751 24.72 263.071 24.368C263.391 24.016 263.855 23.696 264.463 23.408C265.583 22.896 266.655 22.464 267.679 22.112C268.767 17.376 269.951 13.072 271.231 9.2C270.783 9.328 270.463 9.392 270.271 9.392C269.823 9.392 269.439 9.28 269.119 9.056C268.799 8.832 268.639 8.56 268.639 8.24C268.639 7.664 269.087 7.168 269.983 6.752C276.031 3.84 282.767 2.432 290.191 2.528ZM314.895 3.344C315.055 3.312 315.279 3.296 315.567 3.296C316.111 3.296 316.511 3.408 316.767 3.632C317.055 3.824 317.199 4.08 317.199 4.4C317.199 4.88 316.943 5.36 316.431 5.84C315.919 6.288 315.295 6.576 314.559 6.704L314.367 6.944C314.079 7.232 313.743 7.728 313.359 8.432C312.751 9.552 312.143 11.136 311.535 13.184C310.735 16.064 310.031 19.952 309.423 24.848C309.039 28.048 308.687 31.616 308.367 35.552C308.335 35.776 308.319 36.128 308.319 36.608C308.255 37.632 308.159 38.48 308.031 39.152C307.903 39.792 307.663 40.336 307.311 40.784C307.023 41.104 306.511 41.44 305.775 41.792C305.071 42.112 304.415 42.272 303.807 42.272C303.007 42.272 302.527 41.952 302.367 41.312C301.663 38.944 300.815 35.488 299.823 30.944C299.663 30.24 299.423 29.2 299.103 27.824C298.783 26.448 298.495 25.248 298.239 24.224L296.943 19.28C296.751 21.296 296.511 23.328 296.223 25.376C295.711 29.056 295.151 32.128 294.543 34.592C293.967 37.056 293.023 39.264 291.711 41.216C291.359 41.76 290.863 42.208 290.223 42.56C289.615 42.88 288.991 43.04 288.351 43.04C287.903 43.04 287.487 42.96 287.103 42.8C286.719 42.608 286.527 42.352 286.527 42.032C286.527 41.808 286.591 41.616 286.719 41.456C287.903 39.344 288.783 37.072 289.359 34.64C289.967 32.176 290.527 29.136 291.039 25.52C291.775 20.112 292.143 15.12 292.143 10.544C292.143 8.688 292.111 7.296 292.047 6.368C292.015 5.76 292.383 5.232 293.151 4.784C293.919 4.304 294.719 4.064 295.551 4.064C296.191 4.064 296.671 4.224 296.991 4.544C297.727 5.28 298.287 6.112 298.671 7.04C299.087 7.936 299.599 9.28 300.207 11.072C301.007 13.376 302.015 16.864 303.231 21.536C303.455 22.336 303.759 23.536 304.143 25.136C304.271 24.144 304.495 22.624 304.815 20.576C305.327 17.504 305.871 14.88 306.447 12.704C307.055 10.528 308.047 8.512 309.423 6.656C310.799 4.768 312.623 3.664 314.895 3.344ZM340.6 3.344C340.728 3.312 340.952 3.296 341.272 3.296C341.72 3.296 342.104 3.392 342.424 3.584C342.744 3.776 342.904 4.08 342.904 4.496C342.904 4.976 342.616 5.392 342.04 5.744C341.496 6.096 340.904 6.352 340.264 6.512C337.96 7.152 335.768 7.6 333.688 7.856C333.208 12.624 332.456 17.52 331.432 22.544C330.44 27.536 329.192 32.832 327.688 38.432C330.696 38.368 332.936 38.256 334.408 38.096C335.464 38 335.992 38.272 335.992 38.912C335.992 39.392 335.72 39.904 335.176 40.448C334.632 40.96 334.056 41.248 333.448 41.312C329 41.888 324.808 42.176 320.872 42.176C318.728 42.176 316.632 42.08 314.584 41.888C313.88 41.792 313.528 41.6 313.528 41.312C313.528 40.928 313.992 40.448 314.92 39.872C315.816 39.296 316.488 38.992 316.936 38.96C318.792 38.736 320.712 38.592 322.696 38.528C324.232 32.608 325.496 27.248 326.488 22.448C327.48 17.616 328.2 12.88 328.648 8.24C326.088 8.304 323.832 8.16 321.88 7.808C321.208 7.68 320.872 7.456 320.872 7.136C320.872 6.72 321.304 6.256 322.168 5.744C323.064 5.2 323.752 4.912 324.232 4.88C326.024 4.72 327.768 4.624 329.464 4.592L332.104 4.448H332.44C335.704 4.288 338.424 3.92 340.6 3.344ZM354.285 21.2C360.653 18.704 363.837 16.368 363.837 14.192C363.837 12.944 363.053 12 361.485 11.36C359.917 10.688 357.853 10.08 355.293 9.536C354.685 9.44 353.981 9.28 353.181 9.056L351.837 8.624C350.781 13.968 349.949 18.656 349.341 22.688C350.493 22.56 352.141 22.064 354.285 21.2ZM363.933 8.192C365.405 8.736 366.525 9.44 367.293 10.304C368.093 11.168 368.493 12.112 368.493 13.136C368.493 14.608 367.693 16.096 366.093 17.6C363.949 19.616 361.373 21.36 358.365 22.832C355.389 24.272 352.413 25.248 349.437 25.76C349.181 25.824 348.989 25.856 348.861 25.856C348.061 31.2 347.469 36.064 347.085 40.448C347.021 41.056 346.573 41.584 345.741 42.032C344.909 42.48 344.077 42.704 343.245 42.704C342.797 42.704 342.429 42.608 342.141 42.416C341.853 42.224 341.725 41.936 341.757 41.552C342.269 36.432 342.925 31.056 343.725 25.424C342.221 24.784 341.469 23.648 341.469 22.016C341.469 21.312 341.629 20.496 341.949 19.568C342.109 19.152 342.493 18.8 343.101 18.512C343.709 18.192 344.333 18 344.973 17.936C345.517 14.8 346.301 11.024 347.325 6.608C345.757 5.488 344.909 4.064 344.781 2.336C344.749 1.76 345.117 1.248 345.885 0.799998C346.653 0.319999 347.437 0.079999 348.237 0.079999C349.325 0.079999 349.885 0.479999 349.917 1.28C349.949 1.984 350.221 2.64 350.733 3.248C350.893 3.216 351.133 3.2 351.453 3.2C352.477 3.2 352.925 3.552 352.797 4.256L352.653 4.736C353.613 5.28 354.717 5.744 355.965 6.128C357.213 6.48 358.701 6.848 360.429 7.232C362.221 7.648 363.389 7.968 363.933 8.192ZM372.893 24.608C375.133 24.288 377.197 24.128 379.085 24.128L378.605 12.944C377.837 14.32 376.749 16.528 375.341 19.568C374.125 22.16 373.309 23.84 372.893 24.608ZM387.245 41.792C387.373 42.272 387.245 42.736 386.861 43.184C386.477 43.6 385.949 43.936 385.277 44.192C384.637 44.48 384.029 44.624 383.453 44.624C382.525 44.624 381.997 44.336 381.869 43.76C380.717 39.184 379.869 33.744 379.325 27.44C376.445 27.408 373.581 27.68 370.733 28.256C367.725 33.28 364.925 37.904 362.333 42.128C362.077 42.576 361.549 42.96 360.749 43.28C359.917 43.568 359.149 43.712 358.445 43.712C357.549 43.712 357.101 43.472 357.101 42.992C357.101 42.8 357.165 42.592 357.293 42.368C359.853 37.888 362.221 33.792 364.397 30.08L363.581 30.368C363.069 30.56 362.605 30.656 362.189 30.656C361.773 30.656 361.453 30.56 361.229 30.368C360.973 30.176 360.845 29.936 360.845 29.648C360.845 29.328 361.005 29.008 361.325 28.688C361.613 28.336 362.045 28.032 362.621 27.776C364.125 27.104 365.469 26.576 366.653 26.192C368.381 23.216 370.221 19.84 372.173 16.064C374.413 11.744 376.301 8.368 377.837 5.936C377.933 5.808 378.061 5.68 378.221 5.552L378.173 5.312C378.173 4.736 378.573 4.224 379.373 3.776C380.205 3.296 381.037 3.056 381.869 3.056C382.893 3.056 383.421 3.44 383.453 4.208L383.597 7.424C383.885 15.136 384.253 21.632 384.701 26.912C385.181 32.16 386.029 37.12 387.245 41.792Z" fill="white"/>
</g>
<defs>
<filter id="filter0_d" x="0.0682526" y="0.0800018" width="391.224" height="72.512" filterUnits="userSpaceOnUse" color-interpolation-filters="sRGB">
<feFlood flood-opacity="0" result="BackgroundImageFix"/>
<feColorMatrix in="SourceAlpha" type="matrix" values="0 0 0 0 0 0 0 0 0 0 0 0 0 0 0 0 0 0 127 0"/>
<feOffset dy="4"/>
<feGaussianBlur stdDeviation="2"/>
<feColorMatrix type="matrix" values="0 0 0 0 0 0 0 0 0 0 0 0 0 0 0 0 0 0 0.25 0"/>
<feBlend mode="normal" in2="BackgroundImageFix" result="effect1_dropShadow"/>
<feBlend mode="normal" in="SourceGraphic" in2="effect1_dropShadow" result="shape"/>
</filter>
</defs>
</svg>
