<svg width="679" height="43" viewBox="0 0 679 43" fill="none" xmlns="http://www.w3.org/2000/svg">
<g filter="url(#filter0_d)">
<path d="M13.5542 9.016C13.5542 8.376 13.5542 7.792 13.5542 7.264C13.5542 6.736 13.5542 6.136 13.5542 5.464C13.2182 5.464 12.7542 5.472 12.1622 5.488C11.5702 5.504 11.1062 5.512 10.7702 5.512H5.08219C5.00219 5.144 4.94619 4.776 4.91419 4.408C4.88219 4.04 4.86619 3.696 4.86619 3.376C4.86619 3.056 4.88219 2.712 4.91419 2.344C4.94619 1.976 5.00219 1.6 5.08219 1.216H27.1382C27.3302 1.84 27.4262 2.512 27.4262 3.232C27.4262 4.064 27.1942 4.656 26.7302 5.008C26.2662 5.344 25.5462 5.512 24.5702 5.512H21.4262C21.1062 5.512 20.6422 5.504 20.0342 5.488C19.4422 5.472 18.9862 5.464 18.6662 5.464H18.6422C18.6422 6.136 18.6422 6.736 18.6422 7.264C18.6582 7.792 18.6662 8.376 18.6662 9.016V34C18.2502 34.08 17.8102 34.128 17.3462 34.144C16.8982 34.176 16.4822 34.192 16.0982 34.192C15.7142 34.192 15.2902 34.176 14.8262 34.144C14.3782 34.128 13.9542 34.08 13.5542 34V9.016ZM52.7552 29.704C52.7552 31.256 52.5152 32.368 52.0352 33.04C51.5552 33.712 50.6752 34.048 49.3952 34.048H35.1152C34.2192 34.048 33.5072 33.768 32.9792 33.208C32.4672 32.648 32.2112 31.88 32.2112 30.904V1.528L32.4992 1.216H51.8192C51.8992 1.6 51.9472 1.968 51.9632 2.32C51.9792 2.656 51.9872 2.968 51.9872 3.256C51.9872 3.544 51.9552 3.904 51.8912 4.336C51.8272 4.752 51.7232 5.152 51.5792 5.536H40.2032C39.8512 5.536 39.3952 5.536 38.8352 5.536C38.2912 5.536 37.7392 5.528 37.1792 5.512C37.1792 6.152 37.1872 6.68 37.2032 7.096C37.2192 7.512 37.2272 8.04 37.2272 8.68V15.352C37.7872 15.352 38.3312 15.352 38.8592 15.352C39.4032 15.336 39.8512 15.328 40.2032 15.328H49.2272C49.3072 15.664 49.3712 16.032 49.4192 16.432C49.4672 16.832 49.4912 17.168 49.4912 17.44C49.4912 17.728 49.4672 18.072 49.4192 18.472C49.3712 18.856 49.3072 19.224 49.2272 19.576H40.2032C39.8512 19.576 39.4032 19.576 38.8592 19.576C38.3312 19.56 37.7872 19.544 37.2272 19.528V27.376C37.2272 27.808 37.2192 28.208 37.2032 28.576C37.1872 28.944 37.1792 29.352 37.1792 29.8C37.6432 29.768 38.1312 29.744 38.6432 29.728C39.1552 29.712 39.7232 29.704 40.3472 29.704H52.7552ZM61.1507 1.24C61.7267 1.144 62.3427 1.08 62.9987 1.048C63.6547 1.016 64.1907 0.999997 64.6067 0.999997C65.0227 0.999997 65.5267 1.016 66.1187 1.048C66.7107 1.08 67.2867 1.144 67.8467 1.24L72.4067 16.264C72.5187 16.632 72.6627 17.168 72.8387 17.872C73.0307 18.576 73.2307 19.328 73.4387 20.128C73.6467 20.928 73.8227 21.672 73.9667 22.36C74.1267 23.048 74.2387 23.552 74.3027 23.872H74.5667C74.6307 23.552 74.7427 23.048 74.9027 22.36C75.0627 21.672 75.2387 20.928 75.4307 20.128C75.6387 19.328 75.8307 18.576 76.0067 17.872C76.1987 17.168 76.3507 16.632 76.4627 16.264L81.0227 1.24C81.6307 1.144 82.2147 1.08 82.7747 1.048C83.3507 1.016 83.8547 0.999997 84.2867 0.999997C84.6867 0.999997 85.2067 1.016 85.8467 1.048C86.4867 1.08 87.1187 1.144 87.7427 1.24L90.2867 33.928C89.9187 34.024 89.4947 34.096 89.0147 34.144C88.5347 34.192 88.0867 34.216 87.6707 34.216C86.8387 34.216 86.0787 34.16 85.3907 34.048L84.2627 16.48C84.2147 15.616 84.1587 14.608 84.0947 13.456C84.0467 12.288 83.9987 11.112 83.9507 9.928C83.9187 8.744 83.8947 7.68 83.8787 6.736H83.6147L77.0147 28.984C76.6307 29.048 76.1987 29.096 75.7187 29.128C75.2387 29.16 74.8067 29.176 74.4227 29.176C74.0387 29.176 73.6067 29.16 73.1267 29.128C72.6467 29.096 72.2227 29.048 71.8547 28.984L65.2787 6.736H64.9907C64.9587 7.68 64.9187 8.744 64.8707 9.928C64.8387 11.112 64.7987 12.288 64.7507 13.456C64.7027 14.608 64.6547 15.616 64.6067 16.48L63.4787 34.048C63.0947 34.112 62.7107 34.152 62.3267 34.168C61.9427 34.2 61.5507 34.216 61.1507 34.216C60.7187 34.216 60.2707 34.192 59.8067 34.144C59.3427 34.096 58.9427 34.024 58.6067 33.928L61.1507 1.24ZM119.356 11.704C119.356 14.056 118.884 16.024 117.94 17.608C117.012 19.192 115.716 20.392 114.052 21.208C112.404 22.008 110.508 22.408 108.364 22.408H103.276V34C102.892 34.08 102.468 34.128 102.004 34.144C101.54 34.176 101.108 34.192 100.708 34.192C100.324 34.192 99.8923 34.176 99.4123 34.144C98.9483 34.128 98.5323 34.08 98.1643 34V1.48L98.4763 1.192C100.284 1.16 101.972 1.128 103.54 1.096C105.124 1.048 106.732 1.024 108.364 1.024C110.492 1.024 112.38 1.416 114.028 2.2C115.692 2.984 116.996 4.168 117.94 5.752C118.884 7.336 119.356 9.32 119.356 11.704ZM103.276 5.056V18.4C104.188 18.384 105.116 18.376 106.06 18.376C107.02 18.36 107.732 18.352 108.196 18.352C109.78 18.352 110.988 18 111.82 17.296C112.668 16.592 113.244 15.728 113.548 14.704C113.868 13.664 114.028 12.664 114.028 11.704C114.028 10.728 113.868 9.736 113.548 8.728C113.244 7.704 112.668 6.848 111.82 6.16C110.988 5.456 109.78 5.104 108.196 5.104C107.508 5.104 106.716 5.104 105.82 5.104C104.924 5.104 104.076 5.088 103.276 5.056ZM145.943 29.704C145.943 31.256 145.703 32.368 145.223 33.04C144.743 33.712 143.863 34.048 142.583 34.048H128.303C127.407 34.048 126.695 33.768 126.167 33.208C125.655 32.648 125.399 31.88 125.399 30.904V1.528L125.687 1.216H145.007C145.087 1.6 145.135 1.968 145.151 2.32C145.167 2.656 145.175 2.968 145.175 3.256C145.175 3.544 145.143 3.904 145.079 4.336C145.015 4.752 144.911 5.152 144.767 5.536H133.391C133.039 5.536 132.583 5.536 132.023 5.536C131.479 5.536 130.927 5.528 130.367 5.512C130.367 6.152 130.375 6.68 130.391 7.096C130.407 7.512 130.415 8.04 130.415 8.68V15.352C130.975 15.352 131.519 15.352 132.047 15.352C132.591 15.336 133.039 15.328 133.391 15.328H142.415C142.495 15.664 142.559 16.032 142.607 16.432C142.655 16.832 142.679 17.168 142.679 17.44C142.679 17.728 142.655 18.072 142.607 18.472C142.559 18.856 142.495 19.224 142.415 19.576H133.391C133.039 19.576 132.591 19.576 132.047 19.576C131.519 19.56 130.975 19.544 130.415 19.528V27.376C130.415 27.808 130.407 28.208 130.391 28.576C130.375 28.944 130.367 29.352 130.367 29.8C130.831 29.768 131.319 29.744 131.831 29.728C132.343 29.712 132.911 29.704 133.535 29.704H145.943ZM174.138 10.864C174.138 13.072 173.546 14.944 172.362 16.48C171.178 18 169.714 19.04 167.97 19.6C168.77 19.888 169.45 20.408 170.01 21.16C170.586 21.896 171.042 22.736 171.378 23.68L173.49 29.296C173.842 30.24 174.178 30.968 174.498 31.48C174.834 31.992 175.218 32.416 175.65 32.752C175.314 33.264 174.81 33.656 174.138 33.928C173.482 34.2 172.834 34.336 172.194 34.336C171.234 34.336 170.53 34.072 170.082 33.544C169.634 33.016 169.218 32.24 168.834 31.216L166.434 24.712C166.034 23.608 165.498 22.688 164.826 21.952C164.154 21.2 163.074 20.824 161.586 20.824H157.674V34C157.274 34.08 156.842 34.128 156.378 34.144C155.93 34.176 155.506 34.192 155.106 34.192C154.738 34.192 154.314 34.176 153.834 34.144C153.37 34.128 152.954 34.08 152.586 34V1.48L152.898 1.192C154.706 1.16 156.474 1.128 158.202 1.096C159.93 1.048 161.61 1.024 163.242 1.024C166.57 1.024 169.218 1.864 171.186 3.544C173.154 5.224 174.138 7.664 174.138 10.864ZM157.674 5.032V16.744C158.602 16.712 159.554 16.688 160.53 16.672C161.506 16.656 162.322 16.648 162.978 16.648C164.546 16.648 165.754 16.36 166.602 15.784C167.45 15.208 168.034 14.48 168.354 13.6C168.674 12.704 168.834 11.792 168.834 10.864C168.834 9.888 168.674 8.96 168.354 8.08C168.034 7.2 167.45 6.48 166.602 5.92C165.754 5.36 164.546 5.08 162.978 5.08C162.29 5.08 161.434 5.08 160.41 5.08C159.402 5.064 158.49 5.048 157.674 5.032ZM188.206 26.08C188.03 26.08 187.622 26.08 186.982 26.08C186.358 26.064 185.838 26.048 185.422 26.032L182.878 34.048C182.558 34.128 182.206 34.176 181.822 34.192C181.438 34.224 181.054 34.24 180.67 34.24C179.726 34.24 178.894 34.128 178.174 33.904L178.03 33.664L188.854 1.216C189.254 1.152 189.742 1.104 190.318 1.072C190.894 1.04 191.398 1.024 191.83 1.024C192.23 1.024 192.718 1.04 193.294 1.072C193.87 1.104 194.334 1.16 194.686 1.24L205.462 33.688C205.094 33.912 204.638 34.072 204.094 34.168C203.566 34.28 203.03 34.336 202.486 34.336C201.67 34.336 201.038 34.152 200.59 33.784C200.142 33.416 199.758 32.696 199.438 31.624L197.662 26.032C197.246 26.048 196.71 26.064 196.054 26.08C195.398 26.08 194.982 26.08 194.806 26.08H188.206ZM189.502 13.216L186.742 21.88C187.11 21.88 187.558 21.872 188.086 21.856C188.63 21.84 188.998 21.832 189.19 21.832H193.966C194.142 21.832 194.478 21.84 194.974 21.856C195.486 21.856 195.942 21.864 196.342 21.88L194.134 14.944C193.702 13.552 193.254 12.08 192.79 10.528C192.342 8.96 191.958 7.544 191.638 6.28H191.374C191.134 7.352 190.822 8.56 190.438 9.904C190.07 11.232 189.758 12.336 189.502 13.216ZM212.867 9.016C212.867 8.376 212.867 7.792 212.867 7.264C212.867 6.736 212.867 6.136 212.867 5.464C212.531 5.464 212.067 5.472 211.475 5.488C210.883 5.504 210.419 5.512 210.083 5.512H204.395C204.315 5.144 204.259 4.776 204.227 4.408C204.195 4.04 204.179 3.696 204.179 3.376C204.179 3.056 204.195 2.712 204.227 2.344C204.259 1.976 204.315 1.6 204.395 1.216H226.451C226.643 1.84 226.739 2.512 226.739 3.232C226.739 4.064 226.507 4.656 226.043 5.008C225.579 5.344 224.859 5.512 223.883 5.512H220.739C220.419 5.512 219.955 5.504 219.347 5.488C218.755 5.472 218.299 5.464 217.979 5.464H217.955C217.955 6.136 217.955 6.736 217.955 7.264C217.971 7.792 217.979 8.376 217.979 9.016V34C217.563 34.08 217.123 34.128 216.659 34.144C216.211 34.176 215.795 34.192 215.411 34.192C215.027 34.192 214.603 34.176 214.139 34.144C213.691 34.128 213.267 34.08 212.867 34V9.016ZM255.356 22.48C255.356 26.448 254.252 29.464 252.044 31.528C249.836 33.592 246.892 34.624 243.212 34.624C239.548 34.624 236.612 33.592 234.404 31.528C232.212 29.464 231.116 26.448 231.116 22.48V1.312L231.428 0.999997H233.372C234.412 0.999997 235.148 1.264 235.58 1.792C236.012 2.32 236.228 3.152 236.228 4.288V22.48C236.228 27.824 238.564 30.496 243.236 30.496C247.908 30.496 250.244 27.824 250.244 22.48V1.216C250.628 1.136 251.036 1.088 251.468 1.072C251.916 1.04 252.34 1.024 252.74 1.024C253.124 1.024 253.556 1.04 254.036 1.072C254.532 1.088 254.972 1.136 255.356 1.216V22.48ZM285.185 10.864C285.185 13.072 284.593 14.944 283.409 16.48C282.225 18 280.761 19.04 279.017 19.6C279.817 19.888 280.497 20.408 281.057 21.16C281.633 21.896 282.089 22.736 282.425 23.68L284.537 29.296C284.889 30.24 285.225 30.968 285.545 31.48C285.881 31.992 286.265 32.416 286.697 32.752C286.361 33.264 285.857 33.656 285.185 33.928C284.529 34.2 283.881 34.336 283.241 34.336C282.281 34.336 281.577 34.072 281.129 33.544C280.681 33.016 280.265 32.24 279.881 31.216L277.481 24.712C277.081 23.608 276.545 22.688 275.873 21.952C275.201 21.2 274.121 20.824 272.633 20.824H268.721V34C268.321 34.08 267.889 34.128 267.425 34.144C266.977 34.176 266.553 34.192 266.153 34.192C265.785 34.192 265.361 34.176 264.881 34.144C264.417 34.128 264.001 34.08 263.633 34V1.48L263.945 1.192C265.753 1.16 267.521 1.128 269.249 1.096C270.977 1.048 272.657 1.024 274.289 1.024C277.617 1.024 280.265 1.864 282.233 3.544C284.201 5.224 285.185 7.664 285.185 10.864ZM268.721 5.032V16.744C269.649 16.712 270.601 16.688 271.577 16.672C272.553 16.656 273.369 16.648 274.025 16.648C275.593 16.648 276.801 16.36 277.649 15.784C278.497 15.208 279.081 14.48 279.401 13.6C279.721 12.704 279.881 11.792 279.881 10.864C279.881 9.888 279.721 8.96 279.401 8.08C279.081 7.2 278.497 6.48 277.649 5.92C276.801 5.36 275.593 5.08 274.025 5.08C273.337 5.08 272.481 5.08 271.457 5.08C270.449 5.064 269.537 5.048 268.721 5.032ZM313.005 29.704C313.005 31.256 312.765 32.368 312.285 33.04C311.805 33.712 310.925 34.048 309.645 34.048H295.365C294.469 34.048 293.757 33.768 293.229 33.208C292.717 32.648 292.461 31.88 292.461 30.904V1.528L292.749 1.216H312.069C312.149 1.6 312.197 1.968 312.213 2.32C312.229 2.656 312.237 2.968 312.237 3.256C312.237 3.544 312.205 3.904 312.141 4.336C312.077 4.752 311.973 5.152 311.829 5.536H300.453C300.101 5.536 299.645 5.536 299.085 5.536C298.541 5.536 297.989 5.528 297.429 5.512C297.429 6.152 297.437 6.68 297.453 7.096C297.469 7.512 297.477 8.04 297.477 8.68V15.352C298.037 15.352 298.581 15.352 299.109 15.352C299.653 15.336 300.101 15.328 300.453 15.328H309.477C309.557 15.664 309.621 16.032 309.669 16.432C309.717 16.832 309.741 17.168 309.741 17.44C309.741 17.728 309.717 18.072 309.669 18.472C309.621 18.856 309.557 19.224 309.477 19.576H300.453C300.101 19.576 299.653 19.576 299.109 19.576C298.581 19.56 298.037 19.544 297.477 19.528V27.376C297.477 27.808 297.469 28.208 297.453 28.576C297.437 28.944 297.429 29.352 297.429 29.8C297.893 29.768 298.381 29.744 298.893 29.728C299.405 29.712 299.973 29.704 300.597 29.704H313.005ZM336.988 26.08C336.812 26.08 336.404 26.08 335.764 26.08C335.14 26.064 334.62 26.048 334.204 26.032L331.66 34.048C331.34 34.128 330.988 34.176 330.604 34.192C330.22 34.224 329.836 34.24 329.452 34.24C328.508 34.24 327.676 34.128 326.956 33.904L326.812 33.664L337.636 1.216C338.036 1.152 338.524 1.104 339.1 1.072C339.676 1.04 340.18 1.024 340.612 1.024C341.012 1.024 341.5 1.04 342.076 1.072C342.652 1.104 343.116 1.16 343.468 1.24L354.244 33.688C353.876 33.912 353.42 34.072 352.876 34.168C352.348 34.28 351.812 34.336 351.268 34.336C350.452 34.336 349.82 34.152 349.372 33.784C348.924 33.416 348.54 32.696 348.22 31.624L346.444 26.032C346.028 26.048 345.492 26.064 344.836 26.08C344.18 26.08 343.764 26.08 343.588 26.08H336.988ZM338.284 13.216L335.524 21.88C335.892 21.88 336.34 21.872 336.868 21.856C337.412 21.84 337.78 21.832 337.972 21.832H342.748C342.924 21.832 343.26 21.84 343.756 21.856C344.268 21.856 344.724 21.864 345.124 21.88L342.916 14.944C342.484 13.552 342.036 12.08 341.572 10.528C341.124 8.96 340.74 7.544 340.42 6.28H340.156C339.916 7.352 339.604 8.56 339.22 9.904C338.852 11.232 338.54 12.336 338.284 13.216ZM382.481 22.48C382.481 26.448 381.377 29.464 379.169 31.528C376.961 33.592 374.017 34.624 370.337 34.624C366.673 34.624 363.737 33.592 361.529 31.528C359.337 29.464 358.241 26.448 358.241 22.48V1.312L358.553 0.999997H360.497C361.537 0.999997 362.273 1.264 362.705 1.792C363.137 2.32 363.353 3.152 363.353 4.288V22.48C363.353 27.824 365.689 30.496 370.361 30.496C375.033 30.496 377.369 27.824 377.369 22.48V1.216C377.753 1.136 378.161 1.088 378.593 1.072C379.041 1.04 379.465 1.024 379.865 1.024C380.249 1.024 380.681 1.04 381.161 1.072C381.657 1.088 382.097 1.136 382.481 1.216V22.48ZM395.726 9.016C395.726 8.376 395.726 7.792 395.726 7.264C395.726 6.736 395.726 6.136 395.726 5.464C395.39 5.464 394.926 5.472 394.334 5.488C393.742 5.504 393.278 5.512 392.942 5.512H387.254C387.174 5.144 387.118 4.776 387.086 4.408C387.054 4.04 387.038 3.696 387.038 3.376C387.038 3.056 387.054 2.712 387.086 2.344C387.118 1.976 387.174 1.6 387.254 1.216H409.31C409.502 1.84 409.598 2.512 409.598 3.232C409.598 4.064 409.366 4.656 408.902 5.008C408.438 5.344 407.718 5.512 406.742 5.512H403.598C403.278 5.512 402.814 5.504 402.206 5.488C401.614 5.472 401.158 5.464 400.838 5.464H400.814C400.814 6.136 400.814 6.736 400.814 7.264C400.83 7.792 400.838 8.376 400.838 9.016V34C400.422 34.08 399.982 34.128 399.518 34.144C399.07 34.176 398.654 34.192 398.27 34.192C397.886 34.192 397.462 34.176 396.998 34.144C396.55 34.128 396.126 34.08 395.726 34V9.016ZM411.056 17.584C411.056 14.352 411.536 11.456 412.496 8.896C413.472 6.336 414.952 4.312 416.936 2.824C418.92 1.336 421.432 0.591998 424.472 0.591998C427.528 0.591998 430.04 1.344 432.008 2.848C433.992 4.336 435.464 6.36 436.424 8.92C437.4 11.48 437.888 14.368 437.888 17.584C437.888 20.832 437.4 23.744 436.424 26.32C435.464 28.88 433.992 30.904 432.008 32.392C430.024 33.88 427.512 34.624 424.472 34.624C421.416 34.624 418.896 33.88 416.912 32.392C414.928 30.888 413.456 28.848 412.496 26.272C411.536 23.696 411.056 20.8 411.056 17.584ZM416.408 17.584C416.408 19.04 416.512 20.528 416.72 22.048C416.944 23.552 417.344 24.952 417.92 26.248C418.496 27.528 419.312 28.568 420.368 29.368C421.424 30.152 422.792 30.544 424.472 30.544C426.136 30.544 427.496 30.152 428.552 29.368C429.608 28.568 430.416 27.528 430.976 26.248C431.552 24.952 431.944 23.552 432.152 22.048C432.376 20.528 432.488 19.04 432.488 17.584C432.488 16.128 432.376 14.648 432.152 13.144C431.944 11.624 431.552 10.224 430.976 8.944C430.416 7.664 429.608 6.632 428.552 5.848C427.496 5.064 426.136 4.672 424.472 4.672C422.792 4.672 421.424 5.064 420.368 5.848C419.312 6.632 418.496 7.664 417.92 8.944C417.344 10.224 416.944 11.624 416.72 13.144C416.512 14.648 416.408 16.128 416.408 17.584ZM442.721 23.32C442.641 23 442.585 22.656 442.553 22.288C442.521 21.904 442.505 21.552 442.505 21.232C442.505 20.896 442.521 20.536 442.553 20.152C442.585 19.768 442.641 19.4 442.721 19.048H454.625C454.705 19.4 454.761 19.768 454.793 20.152C454.825 20.536 454.841 20.896 454.841 21.232C454.841 21.552 454.825 21.904 454.793 22.288C454.761 22.656 454.705 23 454.625 23.32H442.721ZM485.711 17.608C485.711 19.48 485.591 21.28 485.351 23.008C485.111 24.72 484.623 26.32 483.887 27.808C483.167 29.28 482.087 30.608 480.647 31.792C479.943 32.368 479.095 32.84 478.103 33.208C477.127 33.56 476.119 33.816 475.079 33.976C474.055 34.136 473.119 34.216 472.271 34.216C470.975 34.216 469.791 34.208 468.719 34.192C467.647 34.176 466.559 34.152 465.455 34.12C464.351 34.088 463.103 34.056 461.711 34.024L461.399 33.736V1.48L461.711 1.192C463.103 1.144 464.351 1.112 465.455 1.096C466.559 1.064 467.647 1.048 468.719 1.048C469.791 1.032 470.975 1.024 472.271 1.024C473.119 1.024 474.055 1.104 475.079 1.264C476.119 1.424 477.127 1.688 478.103 2.056C479.095 2.408 479.943 2.872 480.647 3.448C482.071 4.632 483.143 5.968 483.863 7.456C484.599 8.944 485.087 10.544 485.327 12.256C485.583 13.968 485.711 15.752 485.711 17.608ZM480.407 17.608C480.407 16.184 480.311 14.744 480.119 13.288C479.927 11.816 479.551 10.464 478.991 9.232C478.447 8 477.631 7.016 476.543 6.28C475.455 5.528 474.023 5.152 472.247 5.152C471.239 5.152 470.303 5.144 469.439 5.128C468.575 5.112 467.599 5.104 466.511 5.104V30.088C467.599 30.088 468.575 30.096 469.439 30.112C470.303 30.112 471.239 30.112 472.247 30.112C474.023 30.112 475.455 29.736 476.543 28.984C477.631 28.232 478.447 27.24 478.991 26.008C479.551 24.776 479.927 23.424 480.119 21.952C480.311 20.48 480.407 19.032 480.407 17.608ZM513.068 29.704C513.068 31.256 512.828 32.368 512.348 33.04C511.868 33.712 510.988 34.048 509.708 34.048H495.428C494.532 34.048 493.82 33.768 493.292 33.208C492.78 32.648 492.524 31.88 492.524 30.904V1.528L492.812 1.216H512.132C512.212 1.6 512.26 1.968 512.276 2.32C512.292 2.656 512.3 2.968 512.3 3.256C512.3 3.544 512.268 3.904 512.204 4.336C512.14 4.752 512.036 5.152 511.892 5.536H500.516C500.164 5.536 499.708 5.536 499.148 5.536C498.604 5.536 498.052 5.528 497.492 5.512C497.492 6.152 497.5 6.68 497.516 7.096C497.532 7.512 497.54 8.04 497.54 8.68V15.352C498.1 15.352 498.644 15.352 499.172 15.352C499.716 15.336 500.164 15.328 500.516 15.328H509.54C509.62 15.664 509.684 16.032 509.732 16.432C509.78 16.832 509.804 17.168 509.804 17.44C509.804 17.728 509.78 18.072 509.732 18.472C509.684 18.856 509.62 19.224 509.54 19.576H500.516C500.164 19.576 499.716 19.576 499.172 19.576C498.644 19.56 498.1 19.544 497.54 19.528V27.376C497.54 27.808 497.532 28.208 497.516 28.576C497.5 28.944 497.492 29.352 497.492 29.8C497.956 29.768 498.444 29.744 498.956 29.728C499.468 29.712 500.036 29.704 500.66 29.704H513.068ZM524.679 9.016C524.679 8.376 524.679 7.792 524.679 7.264C524.679 6.736 524.679 6.136 524.679 5.464C524.343 5.464 523.879 5.472 523.287 5.488C522.695 5.504 522.231 5.512 521.895 5.512H516.207C516.127 5.144 516.071 4.776 516.039 4.408C516.007 4.04 515.991 3.696 515.991 3.376C515.991 3.056 516.007 2.712 516.039 2.344C516.071 1.976 516.127 1.6 516.207 1.216H538.263C538.455 1.84 538.551 2.512 538.551 3.232C538.551 4.064 538.319 4.656 537.855 5.008C537.391 5.344 536.671 5.512 535.695 5.512H532.551C532.231 5.512 531.767 5.504 531.159 5.488C530.567 5.472 530.111 5.464 529.791 5.464H529.767C529.767 6.136 529.767 6.736 529.767 7.264C529.783 7.792 529.791 8.376 529.791 9.016V34C529.375 34.08 528.935 34.128 528.471 34.144C528.023 34.176 527.607 34.192 527.223 34.192C526.839 34.192 526.415 34.176 525.951 34.144C525.503 34.128 525.079 34.08 524.679 34V9.016ZM563.88 29.704C563.88 31.256 563.64 32.368 563.16 33.04C562.68 33.712 561.8 34.048 560.52 34.048H546.24C545.344 34.048 544.632 33.768 544.104 33.208C543.592 32.648 543.336 31.88 543.336 30.904V1.528L543.624 1.216H562.944C563.024 1.6 563.072 1.968 563.088 2.32C563.104 2.656 563.112 2.968 563.112 3.256C563.112 3.544 563.08 3.904 563.016 4.336C562.952 4.752 562.848 5.152 562.704 5.536H551.328C550.976 5.536 550.52 5.536 549.96 5.536C549.416 5.536 548.864 5.528 548.304 5.512C548.304 6.152 548.312 6.68 548.328 7.096C548.344 7.512 548.352 8.04 548.352 8.68V15.352C548.912 15.352 549.456 15.352 549.984 15.352C550.528 15.336 550.976 15.328 551.328 15.328H560.352C560.432 15.664 560.496 16.032 560.544 16.432C560.592 16.832 560.616 17.168 560.616 17.44C560.616 17.728 560.592 18.072 560.544 18.472C560.496 18.856 560.432 19.224 560.352 19.576H551.328C550.976 19.576 550.528 19.576 549.984 19.576C549.456 19.56 548.912 19.544 548.352 19.528V27.376C548.352 27.808 548.344 28.208 548.328 28.576C548.312 28.944 548.304 29.352 548.304 29.8C548.768 29.768 549.256 29.744 549.768 29.728C550.28 29.712 550.848 29.704 551.472 29.704H563.88ZM587.956 12.544C587.956 11.328 587.756 10.12 587.356 8.92C586.972 7.72 586.292 6.728 585.316 5.944C584.34 5.144 582.988 4.744 581.26 4.744C578.732 4.744 576.82 5.856 575.524 8.08C574.244 10.288 573.604 13.52 573.604 17.776C573.604 21.744 574.308 24.8 575.716 26.944C577.124 29.088 579.068 30.16 581.548 30.16C583.036 30.16 584.492 29.848 585.916 29.224C587.34 28.584 588.74 27.68 590.116 26.512C590.676 26.88 591.204 27.376 591.7 28C592.196 28.624 592.516 29.232 592.66 29.824C591.348 31.152 589.636 32.288 587.524 33.232C585.428 34.16 583.156 34.624 580.708 34.624C578.404 34.624 576.452 34.152 574.852 33.208C573.268 32.264 571.988 30.992 571.012 29.392C570.036 27.776 569.324 25.968 568.876 23.968C568.444 21.952 568.228 19.88 568.228 17.752C568.228 13.768 568.828 10.512 570.028 7.984C571.244 5.456 572.844 3.592 574.828 2.392C576.828 1.176 579.004 0.568 581.356 0.568C583.74 0.568 585.796 1.016 587.524 1.912C589.252 2.792 590.588 3.952 591.532 5.392C592.476 6.816 592.948 8.336 592.948 9.952C592.948 10.832 592.724 11.536 592.276 12.064C591.828 12.592 591.084 12.856 590.044 12.856C589.66 12.856 589.308 12.832 588.988 12.784C588.684 12.736 588.34 12.656 587.956 12.544ZM604.132 9.016C604.132 8.376 604.132 7.792 604.132 7.264C604.132 6.736 604.132 6.136 604.132 5.464C603.796 5.464 603.332 5.472 602.74 5.488C602.148 5.504 601.684 5.512 601.348 5.512H595.66C595.58 5.144 595.524 4.776 595.492 4.408C595.46 4.04 595.444 3.696 595.444 3.376C595.444 3.056 595.46 2.712 595.492 2.344C595.524 1.976 595.58 1.6 595.66 1.216H617.716C617.908 1.84 618.004 2.512 618.004 3.232C618.004 4.064 617.772 4.656 617.308 5.008C616.844 5.344 616.124 5.512 615.148 5.512H612.004C611.684 5.512 611.22 5.504 610.612 5.488C610.02 5.472 609.564 5.464 609.244 5.464H609.22C609.22 6.136 609.22 6.736 609.22 7.264C609.236 7.792 609.244 8.376 609.244 9.016V34C608.828 34.08 608.388 34.128 607.924 34.144C607.476 34.176 607.06 34.192 606.676 34.192C606.292 34.192 605.868 34.176 605.404 34.144C604.956 34.128 604.532 34.08 604.132 34V9.016ZM643.333 29.704C643.333 31.256 643.093 32.368 642.613 33.04C642.133 33.712 641.253 34.048 639.973 34.048H625.693C624.797 34.048 624.085 33.768 623.557 33.208C623.045 32.648 622.789 31.88 622.789 30.904V1.528L623.077 1.216H642.397C642.477 1.6 642.525 1.968 642.541 2.32C642.557 2.656 642.565 2.968 642.565 3.256C642.565 3.544 642.533 3.904 642.469 4.336C642.405 4.752 642.301 5.152 642.157 5.536H630.781C630.429 5.536 629.973 5.536 629.413 5.536C628.869 5.536 628.317 5.528 627.757 5.512C627.757 6.152 627.765 6.68 627.781 7.096C627.797 7.512 627.805 8.04 627.805 8.68V15.352C628.365 15.352 628.909 15.352 629.437 15.352C629.981 15.336 630.429 15.328 630.781 15.328H639.805C639.885 15.664 639.949 16.032 639.997 16.432C640.045 16.832 640.069 17.168 640.069 17.44C640.069 17.728 640.045 18.072 639.997 18.472C639.949 18.856 639.885 19.224 639.805 19.576H630.781C630.429 19.576 629.981 19.576 629.437 19.576C628.909 19.56 628.365 19.544 627.805 19.528V27.376C627.805 27.808 627.797 28.208 627.781 28.576C627.765 28.944 627.757 29.352 627.757 29.8C628.221 29.768 628.709 29.744 629.221 29.728C629.733 29.712 630.301 29.704 630.925 29.704H643.333ZM674.289 17.608C674.289 19.48 674.169 21.28 673.929 23.008C673.689 24.72 673.201 26.32 672.465 27.808C671.745 29.28 670.665 30.608 669.225 31.792C668.521 32.368 667.673 32.84 666.681 33.208C665.705 33.56 664.697 33.816 663.657 33.976C662.633 34.136 661.697 34.216 660.849 34.216C659.553 34.216 658.369 34.208 657.297 34.192C656.225 34.176 655.137 34.152 654.033 34.12C652.929 34.088 651.681 34.056 650.289 34.024L649.977 33.736V1.48L650.289 1.192C651.681 1.144 652.929 1.112 654.033 1.096C655.137 1.064 656.225 1.048 657.297 1.048C658.369 1.032 659.553 1.024 660.849 1.024C661.697 1.024 662.633 1.104 663.657 1.264C664.697 1.424 665.705 1.688 666.681 2.056C667.673 2.408 668.521 2.872 669.225 3.448C670.649 4.632 671.721 5.968 672.441 7.456C673.177 8.944 673.665 10.544 673.905 12.256C674.161 13.968 674.289 15.752 674.289 17.608ZM668.985 17.608C668.985 16.184 668.889 14.744 668.697 13.288C668.505 11.816 668.129 10.464 667.569 9.232C667.025 8 666.209 7.016 665.121 6.28C664.033 5.528 662.601 5.152 660.825 5.152C659.817 5.152 658.881 5.144 658.017 5.128C657.153 5.112 656.177 5.104 655.089 5.104V30.088C656.177 30.088 657.153 30.096 658.017 30.112C658.881 30.112 659.817 30.112 660.825 30.112C662.601 30.112 664.033 29.736 665.121 28.984C666.209 28.232 667.025 27.24 667.569 26.008C668.129 24.776 668.505 23.424 668.697 21.952C668.889 20.48 668.985 19.032 668.985 17.608Z" fill="white"/>
</g>
<defs>
<filter id="filter0_d" x="0.86618" y="0.568001" width="677.423" height="42.056" filterUnits="userSpaceOnUse" color-interpolation-filters="sRGB">
<feFlood flood-opacity="0" result="BackgroundImageFix"/>
<feColorMatrix in="SourceAlpha" type="matrix" values="0 0 0 0 0 0 0 0 0 0 0 0 0 0 0 0 0 0 127 0"/>
<feOffset dy="4"/>
<feGaussianBlur stdDeviation="2"/>
<feColorMatrix type="matrix" values="0 0 0 0 0 0 0 0 0 0 0 0 0 0 0 0 0 0 0.25 0"/>
<feBlend mode="normal" in2="BackgroundImageFix" result="effect1_dropShadow"/>
<feBlend mode="normal" in="SourceGraphic" in2="effect1_dropShadow" result="shape"/>
</filter>
</defs>
</svg>
